<mxfile host="app.diagrams.net" modified="2022-12-01T06:42:32.877Z" agent="5.0 (Windows NT 10.0; Win64; x64) AppleWebKit/537.36 (KHTML, like Gecko) Chrome/107.0.0.0 Safari/537.36" version="20.6.0" etag="sJfgUJyknYN1wsGRwyuo" type="github">
  <diagram id="NEtXwWpdF3co8-COf7qY" name="Page-1">
    <mxGraphModel dx="2031" dy="1134" grid="1" gridSize="10" guides="1" tooltips="1" connect="1" arrows="1" fold="1" page="1" pageScale="1" pageWidth="850" pageHeight="1100" math="0" shadow="0">
      <root>
        <mxCell id="0" />
        <mxCell id="1" parent="0" />
        <mxCell id="FWZ8tY1wOqQnMFK3cBFE-1" value="A" style="ellipse;whiteSpace=wrap;html=1;aspect=fixed;" vertex="1" parent="1">
          <mxGeometry x="400" y="170" width="50" height="50" as="geometry" />
        </mxCell>
        <mxCell id="FWZ8tY1wOqQnMFK3cBFE-2" value="B" style="ellipse;whiteSpace=wrap;html=1;aspect=fixed;" vertex="1" parent="1">
          <mxGeometry x="290" y="300" width="50" height="50" as="geometry" />
        </mxCell>
        <mxCell id="FWZ8tY1wOqQnMFK3cBFE-3" value="C" style="ellipse;whiteSpace=wrap;html=1;aspect=fixed;" vertex="1" parent="1">
          <mxGeometry x="400" y="300" width="50" height="50" as="geometry" />
        </mxCell>
        <mxCell id="FWZ8tY1wOqQnMFK3cBFE-4" value="D" style="ellipse;whiteSpace=wrap;html=1;aspect=fixed;" vertex="1" parent="1">
          <mxGeometry x="520" y="300" width="50" height="50" as="geometry" />
        </mxCell>
        <mxCell id="FWZ8tY1wOqQnMFK3cBFE-5" value="E" style="ellipse;whiteSpace=wrap;html=1;aspect=fixed;" vertex="1" parent="1">
          <mxGeometry x="230" y="400" width="50" height="50" as="geometry" />
        </mxCell>
        <mxCell id="FWZ8tY1wOqQnMFK3cBFE-6" value="F" style="ellipse;whiteSpace=wrap;html=1;aspect=fixed;" vertex="1" parent="1">
          <mxGeometry x="180" y="500" width="50" height="50" as="geometry" />
        </mxCell>
        <mxCell id="FWZ8tY1wOqQnMFK3cBFE-7" value="H" style="ellipse;whiteSpace=wrap;html=1;aspect=fixed;" vertex="1" parent="1">
          <mxGeometry x="280" y="500" width="50" height="50" as="geometry" />
        </mxCell>
        <mxCell id="FWZ8tY1wOqQnMFK3cBFE-8" value="G" style="ellipse;whiteSpace=wrap;html=1;aspect=fixed;" vertex="1" parent="1">
          <mxGeometry x="130" y="580" width="50" height="50" as="geometry" />
        </mxCell>
        <mxCell id="FWZ8tY1wOqQnMFK3cBFE-9" value="I" style="ellipse;whiteSpace=wrap;html=1;aspect=fixed;" vertex="1" parent="1">
          <mxGeometry x="320" y="590" width="50" height="50" as="geometry" />
        </mxCell>
        <mxCell id="FWZ8tY1wOqQnMFK3cBFE-10" value="J" style="ellipse;whiteSpace=wrap;html=1;aspect=fixed;" vertex="1" parent="1">
          <mxGeometry x="350" y="410" width="50" height="50" as="geometry" />
        </mxCell>
        <mxCell id="FWZ8tY1wOqQnMFK3cBFE-11" value="K" style="ellipse;whiteSpace=wrap;html=1;aspect=fixed;" vertex="1" parent="1">
          <mxGeometry x="440" y="410" width="50" height="50" as="geometry" />
        </mxCell>
        <mxCell id="FWZ8tY1wOqQnMFK3cBFE-12" value="N" style="ellipse;whiteSpace=wrap;html=1;aspect=fixed;" vertex="1" parent="1">
          <mxGeometry x="350" y="510" width="50" height="50" as="geometry" />
        </mxCell>
        <mxCell id="FWZ8tY1wOqQnMFK3cBFE-13" value="L" style="ellipse;whiteSpace=wrap;html=1;aspect=fixed;" vertex="1" parent="1">
          <mxGeometry x="610" y="400" width="50" height="50" as="geometry" />
        </mxCell>
        <mxCell id="FWZ8tY1wOqQnMFK3cBFE-14" value="Q" style="ellipse;whiteSpace=wrap;html=1;aspect=fixed;" vertex="1" parent="1">
          <mxGeometry x="670" y="490" width="50" height="50" as="geometry" />
        </mxCell>
        <mxCell id="FWZ8tY1wOqQnMFK3cBFE-15" value="M" style="ellipse;whiteSpace=wrap;html=1;aspect=fixed;" vertex="1" parent="1">
          <mxGeometry x="590" y="600" width="50" height="50" as="geometry" />
        </mxCell>
        <mxCell id="FWZ8tY1wOqQnMFK3cBFE-16" value="O" style="ellipse;whiteSpace=wrap;html=1;aspect=fixed;" vertex="1" parent="1">
          <mxGeometry x="670" y="600" width="50" height="50" as="geometry" />
        </mxCell>
        <mxCell id="FWZ8tY1wOqQnMFK3cBFE-17" value="P" style="ellipse;whiteSpace=wrap;html=1;aspect=fixed;" vertex="1" parent="1">
          <mxGeometry x="750" y="600" width="50" height="50" as="geometry" />
        </mxCell>
        <mxCell id="FWZ8tY1wOqQnMFK3cBFE-19" value="" style="endArrow=none;html=1;rounded=0;entryX=0;entryY=1;entryDx=0;entryDy=0;" edge="1" parent="1" source="FWZ8tY1wOqQnMFK3cBFE-2" target="FWZ8tY1wOqQnMFK3cBFE-1">
          <mxGeometry width="50" height="50" relative="1" as="geometry">
            <mxPoint x="400" y="530" as="sourcePoint" />
            <mxPoint x="450" y="480" as="targetPoint" />
          </mxGeometry>
        </mxCell>
        <mxCell id="FWZ8tY1wOqQnMFK3cBFE-20" value="" style="endArrow=none;html=1;rounded=0;entryX=0.28;entryY=0.98;entryDx=0;entryDy=0;entryPerimeter=0;exitX=0.72;exitY=0.02;exitDx=0;exitDy=0;exitPerimeter=0;" edge="1" parent="1" source="FWZ8tY1wOqQnMFK3cBFE-5" target="FWZ8tY1wOqQnMFK3cBFE-2">
          <mxGeometry width="50" height="50" relative="1" as="geometry">
            <mxPoint x="270" y="400" as="sourcePoint" />
            <mxPoint x="343.22233047033626" y="306.9976695296637" as="targetPoint" />
          </mxGeometry>
        </mxCell>
        <mxCell id="FWZ8tY1wOqQnMFK3cBFE-21" value="" style="endArrow=none;html=1;rounded=0;entryX=0;entryY=1;entryDx=0;entryDy=0;exitX=0.64;exitY=-0.06;exitDx=0;exitDy=0;exitPerimeter=0;" edge="1" parent="1" source="FWZ8tY1wOqQnMFK3cBFE-6" target="FWZ8tY1wOqQnMFK3cBFE-5">
          <mxGeometry width="50" height="50" relative="1" as="geometry">
            <mxPoint x="210" y="500" as="sourcePoint" />
            <mxPoint x="247" y="439" as="targetPoint" />
          </mxGeometry>
        </mxCell>
        <mxCell id="FWZ8tY1wOqQnMFK3cBFE-23" value="" style="endArrow=none;html=1;rounded=0;entryX=0;entryY=1;entryDx=0;entryDy=0;exitX=0.72;exitY=0.06;exitDx=0;exitDy=0;exitPerimeter=0;" edge="1" parent="1" source="FWZ8tY1wOqQnMFK3cBFE-8" target="FWZ8tY1wOqQnMFK3cBFE-6">
          <mxGeometry width="50" height="50" relative="1" as="geometry">
            <mxPoint x="160" y="590" as="sourcePoint" />
            <mxPoint x="201" y="530" as="targetPoint" />
          </mxGeometry>
        </mxCell>
        <mxCell id="FWZ8tY1wOqQnMFK3cBFE-24" value="" style="endArrow=none;html=1;rounded=0;entryX=0.5;entryY=1;entryDx=0;entryDy=0;exitX=0.5;exitY=0;exitDx=0;exitDy=0;" edge="1" parent="1" source="FWZ8tY1wOqQnMFK3cBFE-3" target="FWZ8tY1wOqQnMFK3cBFE-1">
          <mxGeometry width="50" height="50" relative="1" as="geometry">
            <mxPoint x="400" y="530" as="sourcePoint" />
            <mxPoint x="450" y="480" as="targetPoint" />
          </mxGeometry>
        </mxCell>
        <mxCell id="FWZ8tY1wOqQnMFK3cBFE-25" value="" style="endArrow=none;html=1;rounded=0;entryX=0.5;entryY=0;entryDx=0;entryDy=0;exitX=0;exitY=1;exitDx=0;exitDy=0;" edge="1" parent="1" source="FWZ8tY1wOqQnMFK3cBFE-3" target="FWZ8tY1wOqQnMFK3cBFE-10">
          <mxGeometry width="50" height="50" relative="1" as="geometry">
            <mxPoint x="435" y="310" as="sourcePoint" />
            <mxPoint x="435" y="230" as="targetPoint" />
          </mxGeometry>
        </mxCell>
        <mxCell id="FWZ8tY1wOqQnMFK3cBFE-26" value="" style="endArrow=none;html=1;rounded=0;entryX=0.5;entryY=0;entryDx=0;entryDy=0;exitX=0.72;exitY=0.96;exitDx=0;exitDy=0;exitPerimeter=0;" edge="1" parent="1" source="FWZ8tY1wOqQnMFK3cBFE-3" target="FWZ8tY1wOqQnMFK3cBFE-11">
          <mxGeometry width="50" height="50" relative="1" as="geometry">
            <mxPoint x="417.3223304703363" y="352.6776695296637" as="sourcePoint" />
            <mxPoint x="385" y="420" as="targetPoint" />
          </mxGeometry>
        </mxCell>
        <mxCell id="FWZ8tY1wOqQnMFK3cBFE-27" value="" style="endArrow=none;html=1;rounded=0;entryX=1;entryY=1;entryDx=0;entryDy=0;exitX=0.5;exitY=0;exitDx=0;exitDy=0;" edge="1" parent="1" source="FWZ8tY1wOqQnMFK3cBFE-7" target="FWZ8tY1wOqQnMFK3cBFE-5">
          <mxGeometry width="50" height="50" relative="1" as="geometry">
            <mxPoint x="446" y="358" as="sourcePoint" />
            <mxPoint x="475" y="420" as="targetPoint" />
          </mxGeometry>
        </mxCell>
        <mxCell id="FWZ8tY1wOqQnMFK3cBFE-28" value="" style="endArrow=none;html=1;rounded=0;entryX=0.5;entryY=0;entryDx=0;entryDy=0;exitX=0.5;exitY=1;exitDx=0;exitDy=0;" edge="1" parent="1" source="FWZ8tY1wOqQnMFK3cBFE-10" target="FWZ8tY1wOqQnMFK3cBFE-12">
          <mxGeometry width="50" height="50" relative="1" as="geometry">
            <mxPoint x="456" y="368" as="sourcePoint" />
            <mxPoint x="485" y="430" as="targetPoint" />
          </mxGeometry>
        </mxCell>
        <mxCell id="FWZ8tY1wOqQnMFK3cBFE-29" value="" style="endArrow=none;html=1;rounded=0;entryX=0.36;entryY=0.02;entryDx=0;entryDy=0;exitX=1;exitY=1;exitDx=0;exitDy=0;entryPerimeter=0;" edge="1" parent="1" source="FWZ8tY1wOqQnMFK3cBFE-7" target="FWZ8tY1wOqQnMFK3cBFE-9">
          <mxGeometry width="50" height="50" relative="1" as="geometry">
            <mxPoint x="315" y="510" as="sourcePoint" />
            <mxPoint x="288" y="445" as="targetPoint" />
          </mxGeometry>
        </mxCell>
        <mxCell id="FWZ8tY1wOqQnMFK3cBFE-30" value="" style="endArrow=none;html=1;rounded=0;entryX=1;entryY=1;entryDx=0;entryDy=0;exitX=0;exitY=0;exitDx=0;exitDy=0;" edge="1" parent="1" source="FWZ8tY1wOqQnMFK3cBFE-4" target="FWZ8tY1wOqQnMFK3cBFE-1">
          <mxGeometry width="50" height="50" relative="1" as="geometry">
            <mxPoint x="435" y="310" as="sourcePoint" />
            <mxPoint x="435" y="230" as="targetPoint" />
          </mxGeometry>
        </mxCell>
        <mxCell id="FWZ8tY1wOqQnMFK3cBFE-31" value="" style="endArrow=none;html=1;rounded=0;exitX=0;exitY=0;exitDx=0;exitDy=0;" edge="1" parent="1" source="FWZ8tY1wOqQnMFK3cBFE-13">
          <mxGeometry width="50" height="50" relative="1" as="geometry">
            <mxPoint x="644.6423304703362" y="434.6423304703363" as="sourcePoint" />
            <mxPoint x="560" y="340" as="targetPoint" />
          </mxGeometry>
        </mxCell>
        <mxCell id="FWZ8tY1wOqQnMFK3cBFE-32" value="" style="endArrow=none;html=1;rounded=0;entryX=0.5;entryY=0;entryDx=0;entryDy=0;exitX=0;exitY=1;exitDx=0;exitDy=0;" edge="1" parent="1" source="FWZ8tY1wOqQnMFK3cBFE-14" target="FWZ8tY1wOqQnMFK3cBFE-15">
          <mxGeometry width="50" height="50" relative="1" as="geometry">
            <mxPoint x="680" y="530" as="sourcePoint" />
            <mxPoint x="462.6776695296637" y="232.67766952966372" as="targetPoint" />
          </mxGeometry>
        </mxCell>
        <mxCell id="FWZ8tY1wOqQnMFK3cBFE-33" value="" style="endArrow=none;html=1;rounded=0;entryX=0;entryY=0;entryDx=0;entryDy=0;exitX=0.7;exitY=0.96;exitDx=0;exitDy=0;exitPerimeter=0;" edge="1" parent="1" source="FWZ8tY1wOqQnMFK3cBFE-13" target="FWZ8tY1wOqQnMFK3cBFE-14">
          <mxGeometry width="50" height="50" relative="1" as="geometry">
            <mxPoint x="639" y="461" as="sourcePoint" />
            <mxPoint x="625" y="610" as="targetPoint" />
          </mxGeometry>
        </mxCell>
        <mxCell id="FWZ8tY1wOqQnMFK3cBFE-34" value="" style="endArrow=none;html=1;rounded=0;exitX=0.5;exitY=1;exitDx=0;exitDy=0;" edge="1" parent="1" source="FWZ8tY1wOqQnMFK3cBFE-14" target="FWZ8tY1wOqQnMFK3cBFE-16">
          <mxGeometry width="50" height="50" relative="1" as="geometry">
            <mxPoint x="681" y="541" as="sourcePoint" />
            <mxPoint x="625" y="610" as="targetPoint" />
          </mxGeometry>
        </mxCell>
        <mxCell id="FWZ8tY1wOqQnMFK3cBFE-35" value="" style="endArrow=none;html=1;rounded=0;entryX=0.5;entryY=0;entryDx=0;entryDy=0;exitX=1;exitY=1;exitDx=0;exitDy=0;" edge="1" parent="1" source="FWZ8tY1wOqQnMFK3cBFE-14" target="FWZ8tY1wOqQnMFK3cBFE-17">
          <mxGeometry width="50" height="50" relative="1" as="geometry">
            <mxPoint x="690" y="540" as="sourcePoint" />
            <mxPoint x="625" y="610" as="targetPoint" />
          </mxGeometry>
        </mxCell>
        <mxCell id="FWZ8tY1wOqQnMFK3cBFE-36" value="&lt;font style=&quot;font-size: 18px;&quot;&gt;Ben Florence A.J E. Til&lt;/font&gt;" style="text;html=1;align=center;verticalAlign=middle;resizable=0;points=[];autosize=1;strokeColor=none;fillColor=none;" vertex="1" parent="1">
          <mxGeometry x="120" y="70" width="210" height="40" as="geometry" />
        </mxCell>
      </root>
    </mxGraphModel>
  </diagram>
</mxfile>
